<svg width="15" height="15" viewBox="0 0 15 15" fill="none" xmlns="http://www.w3.org/2000/svg">
<path d="M5.71428 7.89474C7.68673 7.89474 9.28571 6.12744 9.28571 3.94737C9.28571 1.7673 7.68673 0 5.71428 0C3.74184 0 2.14285 1.7673 2.14285 3.94737C2.14285 6.12744 3.74184 7.89474 5.71428 7.89474Z" fill="#D7B549"/>
<path d="M12.1429 5.52632V10.2632" stroke="#D7B549" stroke-linecap="round"/>
<path d="M14.2857 7.89474H10" stroke="#D7B549" stroke-linecap="round"/>
<path d="M10.8158 13.723C11.1456 13.6405 11.3433 13.2617 11.1971 12.9247C10.803 12.016 10.1552 11.2175 9.31564 10.6157C8.2825 9.87513 7.01657 9.47368 5.71428 9.47368C4.41201 9.47368 3.14611 9.87513 2.11293 10.6157C1.27333 11.2175 0.625545 12.0159 0.2314 12.9247C0.085249 13.2617 0.283023 13.6405 0.612756 13.723C3.97126 14.5637 7.45728 14.5637 10.8158 13.723Z" fill="#D7B549"/>
</svg>
