<svg width="46" height="46" viewBox="0 0 46 46" fill="none" xmlns="http://www.w3.org/2000/svg">
<g filter="url(#filter0_i_31_40)">
<path d="M22.6951 45.3902C35.2293 45.3902 45.3902 35.2293 45.3902 22.6951C45.3902 10.1609 35.2293 0 22.6951 0C10.1609 0 0 10.1609 0 22.6951C0 35.2293 10.1609 45.3902 22.6951 45.3902Z" fill="#696969"/>
<path d="M27.6 10.4019C26.3396 10.4891 24.8665 11.2958 24.0081 12.3463C23.225 13.2993 22.5808 14.7148 22.832 16.0904C24.209 16.1332 25.6319 15.3073 26.4564 14.239C27.2276 13.2447 27.8113 11.838 27.6 10.4019Z" fill="white"/>
<path d="M32.5806 18.3333C31.3705 16.8158 29.6698 15.9352 28.0637 15.9352C25.9435 15.9352 25.0466 16.9503 23.5735 16.9503C22.0546 16.9503 20.9007 15.9382 19.067 15.9382C17.2659 15.9382 15.3481 17.039 14.1321 18.9213C12.4226 21.572 12.7151 26.5558 15.4855 30.8007C16.4769 32.3196 17.8008 34.0276 19.5325 34.0424C21.0735 34.0572 21.5079 33.0539 23.5957 33.0436C25.6834 33.0318 26.0794 34.0557 27.6175 34.0395C29.3507 34.0262 30.7469 32.1334 31.7384 30.6145C32.4491 29.5256 32.7135 28.9774 33.2647 27.7481C29.2561 26.2218 28.6134 20.5215 32.5806 18.3333Z" fill="white"/>
</g>
<defs>
<filter id="filter0_i_31_40" x="0" y="0" width="45.3901" height="45.3902" filterUnits="userSpaceOnUse" color-interpolation-filters="sRGB">
<feFlood flood-opacity="0" result="BackgroundImageFix"/>
<feBlend mode="normal" in="SourceGraphic" in2="BackgroundImageFix" result="shape"/>
<feColorMatrix in="SourceAlpha" type="matrix" values="0 0 0 0 0 0 0 0 0 0 0 0 0 0 0 0 0 0 127 0" result="hardAlpha"/>
<feOffset/>
<feGaussianBlur stdDeviation="2"/>
<feComposite in2="hardAlpha" operator="arithmetic" k2="-1" k3="1"/>
<feColorMatrix type="matrix" values="0 0 0 0 0 0 0 0 0 0 0 0 0 0 0 0 0 0 0.25 0"/>
<feBlend mode="normal" in2="shape" result="effect1_innerShadow_31_40"/>
</filter>
</defs>
</svg>
