<svg width="35" height="28" viewBox="0 0 35 28" fill="none" xmlns="http://www.w3.org/2000/svg">
<path d="M12.9244 7.47632C15.3089 6.10063 19.1608 6.10063 21.5312 7.47632C23.9016 8.852 23.8875 11.0884 21.503 12.4641C19.1185 13.8397 15.2666 13.8397 12.8962 12.4641C10.5257 11.0813 10.5399 8.852 12.9244 7.47632ZM14.0179 9.64214C14.2225 9.70563 14.427 9.77618 14.6316 9.83967C14.7586 9.87495 14.8362 9.882 14.8927 9.85378C14.9209 9.83262 14.9491 9.8044 14.9773 9.76207C15.1114 9.54337 15.316 9.35289 15.5911 9.19769C15.6264 9.17652 15.6687 9.15536 15.711 9.13419C15.8027 9.08481 15.8874 9.04954 16.0003 9.02132C16.3953 8.92961 16.7481 9.07776 16.6987 9.32467C16.6775 9.45166 16.607 9.56454 16.5223 9.68447C16.3812 9.882 16.226 10.0795 16.1273 10.2912C15.7957 10.9543 16.5153 11.6104 17.6723 11.6739C18.0885 11.6951 18.4836 11.6457 18.8504 11.5258C19.0127 11.4764 19.1326 11.4764 19.2525 11.561C19.3725 11.6386 19.5065 11.7092 19.6335 11.7797C19.7464 11.8432 19.8663 11.8503 19.9792 11.7868C20.0638 11.7445 20.1414 11.6951 20.2261 11.6528C20.2825 11.6175 20.339 11.5893 20.3954 11.554C20.5153 11.4834 20.5012 11.4129 20.3883 11.3423C20.2966 11.2859 20.2049 11.2365 20.1203 11.1801C19.9157 11.0602 19.9157 11.0531 20.085 10.9191C20.2966 10.7497 20.4871 10.5734 20.607 10.3758C20.6988 10.2206 20.6776 10.1854 20.4307 10.1007C20.2473 10.0443 20.0709 9.98077 19.8875 9.92433C19.7534 9.882 19.6758 9.87495 19.6194 9.90317C19.5841 9.92433 19.5629 9.95255 19.5347 10.0019C19.4148 10.2277 19.2102 10.4252 18.9633 10.6157C18.921 10.651 18.8716 10.6792 18.8292 10.7074C18.6952 10.785 18.54 10.8415 18.3636 10.8838C17.9051 10.9896 17.4959 10.8062 17.5382 10.5169C17.5523 10.4182 17.6017 10.3335 17.6652 10.2418C17.8204 10.009 18.025 9.79029 18.1308 9.54337C18.3001 9.1483 18.2225 8.78851 17.6793 8.50632C17.0585 8.18885 16.3671 8.16769 15.6334 8.36522C15.3301 8.44988 15.3371 8.44988 15.1043 8.31584C15.0267 8.26646 14.9491 8.22413 14.8715 8.1818C14.6951 8.08303 14.6316 8.08303 14.4553 8.1818C14.3988 8.21002 14.3494 8.24529 14.293 8.27351C13.9191 8.48515 13.9191 8.48515 14.286 8.70385C14.547 8.852 14.547 8.852 14.3283 9.02837C14.159 9.16241 14.0249 9.30351 13.9262 9.45872C13.8486 9.53632 13.8768 9.59981 14.0179 9.64214ZM9.74266 14.2842C10.3988 14.6652 11.464 14.6652 12.1272 14.2842C12.7833 13.9032 12.7903 13.2824 12.1342 12.9015C11.4781 12.5205 10.4129 12.5205 9.74972 12.9015C9.08657 13.2824 9.07951 13.9032 9.74266 14.2842ZM22.3002 7.03187C22.9563 7.41283 24.0216 7.41283 24.6847 7.03187C25.3479 6.65091 25.3479 6.03009 24.6918 5.64913C24.0357 5.26817 22.9704 5.26817 22.3073 5.64913C21.6512 6.03009 21.6441 6.65091 22.3002 7.03187ZM0.818349 11.3282L19.6194 0.470908C20.7058 -0.156969 22.4695 -0.156969 23.5489 0.470908L33.6302 6.32639C34.7096 6.95426 34.7025 7.97721 33.6161 8.60509L14.8151 19.4624C13.7286 20.0903 11.9649 20.0903 10.8855 19.4624L0.811294 13.6069C-0.275145 12.9791 -0.268089 11.9561 0.818349 11.3282ZM10.681 17.3954C10.8009 17.2825 10.942 17.1767 11.1113 17.0779C12.2118 16.443 13.9967 16.443 15.0902 17.0779C15.1749 17.1273 15.2454 17.1767 15.323 17.2331L29.9194 8.80262C29.7783 8.74618 29.6442 8.68269 29.5173 8.61214C28.4238 7.97721 28.4308 6.94721 29.5314 6.31228C29.6513 6.24173 29.7783 6.17824 29.9123 6.12885L23.8946 2.62967C23.8029 2.70728 23.697 2.77783 23.5771 2.84837C22.4766 3.4833 20.6917 3.4833 19.5982 2.84837C19.4712 2.77783 19.3654 2.70022 19.2666 2.61557L4.62088 11.0672C4.81842 11.1378 4.99479 11.2154 5.1641 11.3141C6.2576 11.9491 6.2576 12.9861 5.14999 13.621C4.98068 13.7198 4.7902 13.7974 4.59266 13.868L10.681 17.3954ZM34.1099 10.778C33.6302 10.531 32.8894 10.5663 32.4309 10.8344L12.7762 22.1785L2.1517 15.9985C1.69314 15.7304 0.938281 15.7304 0.472664 15.9985C0.00704799 16.2666 0.00704756 16.704 0.465609 16.9721L11.7603 23.533C12.3106 23.8576 13.2136 23.8576 13.771 23.533L14.166 23.3073L14.4412 23.145L34.1452 11.7727C34.6249 11.4976 34.6179 11.039 34.1099 10.778ZM0.451501 20.5206L11.7462 27.0816C12.2965 27.4061 13.1995 27.4061 13.7568 27.0816L14.1449 26.8558L14.427 26.6936L34.1311 15.3213C34.6108 15.0461 34.5967 14.5876 34.0888 14.3265C33.6161 14.0796 32.8683 14.1149 32.4097 14.383L12.7621 25.7271L2.1376 19.5541C1.67198 19.286 0.92417 19.286 0.458554 19.5541C-0.00706246 19.8152 -0.0141155 20.2526 0.451501 20.5206Z" fill="#4F55D8"/>
</svg>
