<svg width="14" height="17" viewBox="0 0 14 17" fill="none" xmlns="http://www.w3.org/2000/svg">
<path d="M0 7.80838C0 6.45062 0 5.77174 0.274461 5.175C0.548923 4.57826 1.06437 4.13645 2.09525 3.25284L3.09525 2.39569C4.95857 0.798565 5.89023 0 7 0C8.10977 0 9.04143 0.798564 10.9047 2.39569L11.9047 3.25284C12.9356 4.13645 13.4511 4.57826 13.7255 5.175C14 5.77174 14 6.45062 14 7.80838V12.0488C14 13.9344 14 14.8772 13.4142 15.463C12.8284 16.0488 11.8856 16.0488 10 16.0488H4C2.11438 16.0488 1.17157 16.0488 0.585786 15.463C0 14.8772 0 13.9344 0 12.0488V7.80838Z" fill="#4F55D8"/>
<path d="M9.5 15.0488V10.0488C9.5 9.49654 9.05228 9.04883 8.5 9.04883H5.5C4.94772 9.04883 4.5 9.49654 4.5 10.0488V15.0488" stroke="white" stroke-width="2" stroke-linecap="round" stroke-linejoin="round"/>
</svg>
