<svg width="20" height="18" viewBox="0 0 20 18" fill="none" xmlns="http://www.w3.org/2000/svg">
<path d="M15.8341 3.00069H4.16743C3.7072 3.00069 3.33409 3.33648 3.33409 3.75069V14.2507C3.33409 14.6649 3.7072 15.0007 4.16743 15.0007H15.8341C16.2943 15.0007 16.6674 14.6649 16.6674 14.2507V3.75069C16.6674 3.33648 16.2943 3.00069 15.8341 3.00069Z" stroke="#D7B549" stroke-linecap="round" stroke-linejoin="round"/>
<path d="M13.3341 12.0007H13.3355V12.0021H13.3341V12.0007Z" stroke="#D7B549" stroke-linecap="round" stroke-linejoin="round"/>
<path d="M10 12.0007H10.0014V12.0021H10V12.0007Z" stroke="#D7B549" stroke-linecap="round" stroke-linejoin="round"/>
<path d="M6.66591 12.0007H6.66732V12.0021H6.66591V12.0007Z" stroke="#D7B549" stroke-linecap="round" stroke-linejoin="round"/>
<path d="M13.3341 9H13.3355V9.00142H13.3341V9Z" stroke="#D7B549" stroke-linecap="round" stroke-linejoin="round"/>
<path d="M10 9H10.0014V9.00142H10V9Z" stroke="#D7B549" stroke-linecap="round" stroke-linejoin="round"/>
<path d="M6.66591 9H6.66732V9.00142H6.66591V9Z" stroke="#D7B549" stroke-linecap="round" stroke-linejoin="round"/>
<path d="M3.33409 5.99931H16.6674" stroke="#D7B549" stroke-linecap="round" stroke-linejoin="round"/>
<path d="M13.3341 1.49931V2.99931" stroke="#D7B549" stroke-linecap="round" stroke-linejoin="round"/>
<path d="M6.66591 1.49931V2.99931" stroke="#D7B549" stroke-linecap="round" stroke-linejoin="round"/>
</svg>
