<svg width="14" height="18" viewBox="0 0 14 18" fill="none" xmlns="http://www.w3.org/2000/svg">
<path d="M5.25 0L4.375 0.9H0.875C0.35 0.9 0 1.26 0 1.8C0 2.34 0.35 2.7 0.875 2.7H2.625H11.375H13.125C13.65 2.7 14 2.34 14 1.8C14 1.26 13.65 0.9 13.125 0.9H9.625L8.75 0H5.25ZM0.875 4.5V16.2C0.875 17.19 1.6625 18 2.625 18H11.375C12.3375 18 13.125 17.19 13.125 16.2V4.5H0.875ZM4.375 6.3C4.9 6.3 5.25 6.66 5.25 7.2V15.3C5.25 15.84 4.9 16.2 4.375 16.2C3.85 16.2 3.5 15.84 3.5 15.3V7.2C3.5 6.66 3.85 6.3 4.375 6.3ZM9.625 6.3C10.15 6.3 10.5 6.66 10.5 7.2V15.3C10.5 15.84 10.15 16.2 9.625 16.2C9.1 16.2 8.75 15.84 8.75 15.3V7.2C8.75 6.66 9.1 6.3 9.625 6.3Z" fill="#EF2727"/>
</svg>
