<svg width="36" height="41" viewBox="0 0 36 41" fill="none" xmlns="http://www.w3.org/2000/svg">
<path d="M34.7271 38.376H8.9102C8.67852 38.376 8.49049 38.1872 8.49049 37.9538C8.49049 37.7203 8.67852 37.5315 8.9102 37.5315H34.3078V1.22042H9.3299V21.1675C9.3299 21.401 9.14188 21.5897 8.9102 21.5897C8.67852 21.5897 8.49049 21.401 8.49049 21.1675V0.798199C8.49049 0.565132 8.67852 0.375977 8.9102 0.375977H34.7275C34.9596 0.375977 35.1472 0.565132 35.1472 0.798199V37.9538C35.1468 38.1872 34.9592 38.376 34.7271 38.376Z" fill="#4F55D8"/>
<path d="M31.9897 10.7774H11.6479C11.4162 10.7774 11.2282 10.5883 11.2282 10.3552V3.55235C11.2282 3.31928 11.4162 3.13013 11.6479 3.13013H31.9897C32.2218 3.13013 32.4094 3.31928 32.4094 3.55235V10.3552C32.4094 10.5887 32.2218 10.7774 31.9897 10.7774ZM12.0676 9.93297H31.57V3.97457H12.0676V9.93297Z" fill="#4F55D8"/>
<path d="M16.0024 19.2346H11.6479C11.4162 19.2346 11.2282 19.0454 11.2282 18.8124V13.6933C11.2282 13.4603 11.4162 13.2711 11.6479 13.2711H16.0024C16.234 13.2711 16.4221 13.4603 16.4221 13.6933V18.8128C16.4221 19.0454 16.234 19.2346 16.0024 19.2346ZM12.0676 18.3901H15.5826V14.1156H12.0676V18.3901V18.3901Z" fill="#4F55D8"/>
<path d="M23.996 19.2346H19.6416C19.4095 19.2346 19.2219 19.0454 19.2219 18.8124V13.6933C19.2219 13.4603 19.4095 13.2711 19.6416 13.2711H23.996C24.2281 13.2711 24.4157 13.4603 24.4157 13.6933V18.8128C24.4157 19.0454 24.2281 19.2346 23.996 19.2346ZM20.0613 18.3901H23.5763V14.1156H20.0613V18.3901Z" fill="#4F55D8"/>
<path d="M32.0758 19.2346H27.7213C27.4892 19.2346 27.3016 19.0454 27.3016 18.8124V13.6933C27.3016 13.4603 27.4892 13.2711 27.7213 13.2711H32.0758C32.3079 13.2711 32.4955 13.4603 32.4955 13.6933V18.8128C32.4955 19.0454 32.3079 19.2346 32.0758 19.2346ZM28.141 18.3901H31.6561V14.1156H28.141V18.3901Z" fill="#4F55D8"/>
<path d="M23.996 27.3712H19.6416C19.4095 27.3712 19.2219 27.1824 19.2219 26.949V21.8299C19.2219 21.5964 19.4095 21.4077 19.6416 21.4077H23.996C24.2281 21.4077 24.4157 21.5964 24.4157 21.8299V26.949C24.4157 27.182 24.2281 27.3712 23.996 27.3712ZM20.0613 26.5267H23.5763V22.2522H20.0613V26.5267Z" fill="#4F55D8"/>
<path d="M23.996 35.5073H19.6416C19.4095 35.5073 19.2219 35.3186 19.2219 35.0851V29.966C19.2219 29.7326 19.4095 29.5438 19.6416 29.5438H23.996C24.2281 29.5438 24.4157 29.7326 24.4157 29.966V35.0851C24.4157 35.3186 24.2281 35.5073 23.996 35.5073ZM20.0613 34.6628H23.5763V30.3883H20.0613V34.6628Z" fill="#4F55D8"/>
<path d="M32.0758 35.5074H27.7213C27.4892 35.5074 27.3016 35.3187 27.3016 35.0852V21.8299C27.3016 21.5964 27.4892 21.4077 27.7213 21.4077H32.0758C32.3079 21.4077 32.4955 21.5964 32.4955 21.8299V35.0856C32.4955 35.3187 32.3079 35.5074 32.0758 35.5074ZM28.141 34.663H31.6561V22.2522H28.141V34.663Z" fill="#4F55D8"/>
<path d="M8.91019 36.1049C5.32298 36.1049 2.40477 33.1692 2.40477 29.5604C2.40477 25.9517 5.32298 23.016 8.91019 23.016C10.1521 23.016 11.3596 23.3694 12.403 24.0386C12.5986 24.1636 12.6561 24.4249 12.5314 24.6213C12.4067 24.8189 12.147 24.8763 11.9518 24.7505C11.044 24.1682 9.99219 23.8609 8.91019 23.8609C5.78591 23.8609 3.24418 26.4178 3.24418 29.5609C3.24418 32.7039 5.78591 35.2609 8.91019 35.2609C12.0345 35.2609 14.5762 32.7039 14.5762 29.5609C14.5762 28.2325 14.1124 26.9397 13.2697 25.92C13.1215 25.7406 13.1458 25.4742 13.3242 25.3251C13.5022 25.1769 13.767 25.2014 13.9152 25.38C14.8826 26.5513 15.4156 28.0362 15.4156 29.5609C15.4156 33.1692 12.497 36.1049 8.91019 36.1049Z" fill="#4F55D8"/>
<path d="M8.91018 38.6307C4.07812 38.6307 0.147171 34.6762 0.147171 29.8152C0.147171 24.9545 4.07812 21 8.90976 21C13.7414 21 17.6724 24.9545 17.6724 29.8152C17.6728 34.6762 13.7418 38.6307 8.91018 38.6307ZM8.91018 21.8444C4.54106 21.8444 0.987 25.4202 0.987 29.8152C0.98658 34.2105 4.54106 37.7863 8.91018 37.7863C13.2793 37.7863 16.8334 34.2105 16.8334 29.8152C16.8334 25.4202 13.2789 21.8444 8.91018 21.8444Z" fill="#4F55D8"/>
<path d="M9.02897 32.7296C7.29181 32.7296 5.87909 31.308 5.87909 29.5604C5.87909 27.8128 7.29223 26.3916 9.02897 26.3916C9.81214 26.3916 10.563 26.6825 11.1434 27.2116C11.3151 27.3682 11.3281 27.635 11.1728 27.8082C11.0171 27.9804 10.7519 27.9935 10.5798 27.8373C10.1542 27.4493 9.60355 27.2356 9.02897 27.2356C7.75475 27.2356 6.7185 28.2785 6.7185 29.56C6.7185 30.8418 7.75517 31.8847 9.02897 31.8847C9.60355 31.8847 10.1542 31.6711 10.5798 31.283C10.7519 31.1272 11.0171 31.1395 11.1728 31.3122C11.3285 31.4853 11.3151 31.7521 11.1434 31.9088C10.563 32.4387 9.81214 32.7296 9.02897 32.7296Z" fill="#4F55D8"/>
<path d="M19.4197 30.8979C19.188 30.8979 19 30.7092 19 30.4757V29.4222C19 29.1887 19.188 29 19.4197 29C19.6514 29 19.8394 29.1887 19.8394 29.4222V30.4757C19.8394 30.7092 19.6514 30.8979 19.4197 30.8979Z" fill="#4F55D8"/>
<path d="M1.4197 40.8975C1.18803 40.8975 1 40.7087 1 40.4752V39.4222C1 39.1887 1.18803 39 1.4197 39C1.65138 39 1.83941 39.1887 1.83941 39.4222V40.4752C1.83941 40.7087 1.65138 40.8975 1.4197 40.8975Z" fill="#4F55D8"/>
</svg>
