<svg width="24" height="15" viewBox="0 0 24 15" fill="none" xmlns="http://www.w3.org/2000/svg">
<path d="M15.6484 7.7008C15.6484 8.56427 15.2597 9.39238 14.5677 10.0029C13.8757 10.6135 12.9372 10.9565 11.9586 10.9565C10.98 10.9565 10.0415 10.6135 9.34952 10.0029C8.65755 9.39238 8.2688 8.56427 8.2688 7.7008C8.2688 6.83733 8.65755 6.00922 9.34952 5.39865C10.0415 4.78808 10.98 4.44507 11.9586 4.44507C12.9372 4.44507 13.8757 4.78808 14.5677 5.39865C15.2597 6.00922 15.6484 6.83733 15.6484 7.7008Z" fill="#AFAFAF"/>
<path fill-rule="evenodd" clip-rule="evenodd" d="M0.151123 7.70074C0.151123 7.70074 4.57891 0.538147 11.9586 0.538147C19.3382 0.538147 23.766 7.70074 23.766 7.70074C23.766 7.70074 19.3382 14.8634 11.9586 14.8634C4.57891 14.8634 0.151123 7.70074 0.151123 7.70074ZM11.9586 12.2588C13.3286 12.2588 14.6426 11.7786 15.6113 10.9238C16.5801 10.069 17.1243 8.9096 17.1243 7.70074C17.1243 6.49188 16.5801 5.33253 15.6113 4.47774C14.6426 3.62294 13.3286 3.14273 11.9586 3.14273C10.5885 3.14273 9.27459 3.62294 8.30582 4.47774C7.33705 5.33253 6.79281 6.49188 6.79281 7.70074C6.79281 8.9096 7.33705 10.069 8.30582 10.9238C9.27459 11.7786 10.5885 12.2588 11.9586 12.2588Z" fill="#223A9C" fill-opacity="0.4"/>
<path fill-rule="evenodd" clip-rule="evenodd" d="M0 7.5C0 7.5 4.5 0 12 0C19.5 0 24 7.5 24 7.5C24 7.5 19.5 15 12 15C4.5 15 0 7.5 0 7.5ZM12 12.2728C13.3924 12.2728 14.7277 11.7699 15.7123 10.8749C16.6969 9.97977 17.25 8.76581 17.25 7.5C17.25 6.2342 16.6969 5.02023 15.7123 4.12517C14.7277 3.23012 13.3924 2.72728 12 2.72728C10.6076 2.72728 9.27226 3.23012 8.28769 4.12517C7.30312 5.02023 6.75 6.2342 6.75 7.5C6.75 8.76581 7.30312 9.97977 8.28769 10.8749C9.27226 11.7699 10.6076 12.2728 12 12.2728Z" fill="#AFAFAF"/>
</svg>
