<svg width="46" height="46" viewBox="0 0 46 46" fill="none" xmlns="http://www.w3.org/2000/svg">
<g filter="url(#filter0_i_31_13)">
<path d="M22.6951 45.3902C35.2293 45.3902 45.3902 35.2293 45.3902 22.6951C45.3902 10.1609 35.2293 0 22.6951 0C10.1609 0 0 10.1609 0 22.6951C0 35.2293 10.1609 45.3902 22.6951 45.3902Z" fill="#696969"/>
<path d="M34.0958 20.167L24.453 20.1665C24.0272 20.1665 23.6821 20.5116 23.6821 20.9374V24.0179C23.6821 24.4436 24.0272 24.7888 24.453 24.7888H29.8832C29.2886 26.3319 28.1788 27.6243 26.7628 28.4454L29.0783 32.4537C32.7925 30.3055 34.9884 26.5365 34.9884 22.3173C34.9884 21.7165 34.9442 21.287 34.8556 20.8035C34.7883 20.4361 34.4693 20.167 34.0958 20.167Z" fill="#167EE6"/>
<path d="M23.1674 29.4173C20.51 29.4173 18.1901 27.9653 16.9441 25.8167L12.936 28.127C14.9757 31.6621 18.7967 34.0426 23.1674 34.0426C25.3116 34.0426 27.3348 33.4653 29.0776 32.4593V32.4538L26.7622 28.4455C25.703 29.0598 24.4774 29.4173 23.1674 29.4173Z" fill="#12B347"/>
<path d="M29.0789 32.4592V32.4537L26.7635 28.4454C25.7043 29.0596 24.4788 29.4172 23.1687 29.4172V34.0425C25.3129 34.0425 27.3362 33.4652 29.0789 32.4592Z" fill="#0F993E"/>
<path d="M15.9738 22.2222C15.9738 20.9124 16.3312 19.6869 16.9454 18.6278L12.9373 16.3176C11.9257 18.0549 11.3484 20.0726 11.3484 22.2222C11.3484 24.3719 11.9257 26.3896 12.9373 28.1269L16.9454 25.8167C16.3312 24.7576 15.9738 23.5321 15.9738 22.2222Z" fill="#FFD500"/>
<path d="M23.1674 15.0273C24.9004 15.0273 26.4921 15.643 27.7354 16.6673C28.0422 16.9199 28.488 16.9017 28.7689 16.6207L30.9515 14.4381C31.2703 14.1194 31.2476 13.5975 30.9071 13.3021C28.824 11.495 26.1136 10.4019 23.1674 10.4019C18.7967 10.4019 14.9757 12.7825 12.936 16.3176L16.9441 18.6278C18.1901 16.4792 20.51 15.0273 23.1674 15.0273Z" fill="#FE724C"/>
<path d="M27.7368 16.6673C28.0435 16.9199 28.4893 16.9017 28.7703 16.6207L30.9529 14.4381C31.2716 14.1194 31.2489 13.5975 30.9084 13.3021C28.8253 11.4949 26.1149 10.4019 23.1687 10.4019V15.0273C24.9016 15.0273 26.4935 15.643 27.7368 16.6673Z" fill="#D93F21"/>
</g>
<defs>
<filter id="filter0_i_31_13" x="0" y="0" width="45.3901" height="45.3902" filterUnits="userSpaceOnUse" color-interpolation-filters="sRGB">
<feFlood flood-opacity="0" result="BackgroundImageFix"/>
<feBlend mode="normal" in="SourceGraphic" in2="BackgroundImageFix" result="shape"/>
<feColorMatrix in="SourceAlpha" type="matrix" values="0 0 0 0 0 0 0 0 0 0 0 0 0 0 0 0 0 0 127 0" result="hardAlpha"/>
<feOffset/>
<feGaussianBlur stdDeviation="2"/>
<feComposite in2="hardAlpha" operator="arithmetic" k2="-1" k3="1"/>
<feColorMatrix type="matrix" values="0 0 0 0 0 0 0 0 0 0 0 0 0 0 0 0 0 0 0.25 0"/>
<feBlend mode="normal" in2="shape" result="effect1_innerShadow_31_13"/>
</filter>
</defs>
</svg>
