<svg width="16" height="17" viewBox="0 0 16 17" fill="none" xmlns="http://www.w3.org/2000/svg">
<g clip-path="url(#clip0_9_2)">
<path d="M15.5702 7.39418C15.5699 7.39378 15.5695 7.39344 15.5691 7.39303L9.04173 0.458618C8.76346 0.162903 8.3936 0 8.00013 0C7.60666 0 7.23674 0.162773 6.95834 0.458489L0.434387 7.38936C0.432189 7.39174 0.429991 7.39418 0.427794 7.3965C-0.143553 8.007 -0.142576 8.99756 0.430602 9.6065C0.692467 9.88482 1.03833 10.046 1.40812 10.0629C1.42314 10.0644 1.43827 10.0652 1.45354 10.0652H1.71369V15.1685C1.71369 16.1784 2.48708 17 3.43787 17H5.9916C6.25041 17 6.46042 16.777 6.46042 16.502V12.501C6.46042 12.0401 6.81318 11.6653 7.24698 11.6653H8.75322C9.18701 11.6653 9.53978 12.0401 9.53978 12.501V16.502C9.53978 16.777 9.7497 17 10.0086 17H12.5623C13.5131 17 14.2865 16.1784 14.2865 15.1685V10.0652H14.5277C14.9211 10.0652 15.291 9.90243 15.5695 9.6067C16.1433 8.99674 16.1435 8.00455 15.5702 7.39418Z" fill="#D7B549"/>
</g>
<defs>
<clipPath id="clip0_9_2">
<rect width="16" height="17" fill="white"/>
</clipPath>
</defs>
</svg>
