<svg width="103" height="69" viewBox="0 0 103 69" fill="none" xmlns="http://www.w3.org/2000/svg">
<mask id="path-1-inside-1_8_59" fill="white">
<path d="M0 5C0 2.23858 2.23858 0 5 0H25.9C28.6614 0 30.9 2.23858 30.9 5V26.5C30.9 29.2614 28.6614 31.5 25.9 31.5H5C2.23857 31.5 0 29.2614 0 26.5V5Z"/>
</mask>
<path d="M0 0H30.9H0ZM32.9 26.5C32.9 29.8137 30.2137 32.5 26.9 32.5H4C0.686292 32.5 -2 29.8137 -2 26.5H2C2 28.7091 3.34315 30.5 5 30.5H25.9C27.5569 30.5 28.9 28.7091 28.9 26.5H32.9ZM4 32.5C0.686292 32.5 -2 29.8137 -2 26.5V7C-2 3.13401 1.13401 0 5 0C3.34315 0 2 2.23858 2 5V26.5C2 28.7091 3.34315 30.5 5 30.5L4 32.5ZM25.9 0C29.766 0 32.9 3.13401 32.9 7V26.5C32.9 29.8137 30.2137 32.5 26.9 32.5L25.9 30.5C27.5569 30.5 28.9 28.7091 28.9 26.5V5C28.9 2.23858 27.5569 0 25.9 0Z" fill="#D7B549" mask="url(#path-1-inside-1_8_59)"/>
<mask id="path-3-inside-2_8_59" fill="white">
<path d="M0 59.5C0 62.2614 2.23858 64.5 5 64.5H25.9C28.6614 64.5 30.9 62.2614 30.9 59.5V36.5C30.9 33.7386 28.6614 31.5 25.9 31.5H5C2.23857 31.5 0 33.7386 0 36.5V59.5Z"/>
</mask>
<path d="M0 64.5H30.9H0ZM32.9 36.5C32.9 33.1863 30.2137 30.5 26.9 30.5H4C0.686292 30.5 -2 33.1863 -2 36.5H2C2 34.2909 3.34315 32.5 5 32.5H25.9C27.5569 32.5 28.9 34.2909 28.9 36.5H32.9ZM4 30.5C0.686292 30.5 -2 33.1863 -2 36.5V57.5C-2 61.366 1.13401 64.5 5 64.5C3.34315 64.5 2 62.2614 2 59.5V36.5C2 34.2909 3.34315 32.5 5 32.5L4 30.5ZM25.9 64.5C29.766 64.5 32.9 61.366 32.9 57.5V36.5C32.9 33.1863 30.2137 30.5 26.9 30.5L25.9 32.5C27.5569 32.5 28.9 34.2909 28.9 36.5V59.5C28.9 62.2614 27.5569 64.5 25.9 64.5Z" fill="#D7B549" mask="url(#path-3-inside-2_8_59)"/>
<path d="M39.85 46.64C39.85 50.7733 39.9433 53.48 40.13 54.76C40.13 55.08 39.8233 55.34 39.21 55.54C38.5967 55.7533 38.09 55.86 37.69 55.86C37.29 55.86 37.09 55.8 37.09 55.68C37.09 55.6 37.11 55.5 37.15 55.38C37.4033 54.82 37.53 52.5667 37.53 48.62C37.53 44.8867 37.37 42.8133 37.05 42.4L36.97 42.28C36.89 42.2133 36.85 42.1333 36.85 42.04C36.85 41.9333 36.9233 41.8467 37.07 41.78C37.27 41.66 37.6233 41.54 38.13 41.42C38.65 41.3 39.1167 41.24 39.53 41.24C39.9433 41.24 40.15 41.3333 40.15 41.52V41.58C39.99 42.9667 39.89 44.6533 39.85 46.64ZM47.9123 44.42L47.9923 43.8C47.9923 43.1867 47.7523 42.7933 47.2723 42.62C46.899 42.5 46.6123 42.44 46.4123 42.44H46.3923C45.9923 42.44 45.6457 42.5067 45.3523 42.64C45.059 42.76 44.8457 42.9133 44.7123 43.1C44.4323 43.4867 44.2723 43.8933 44.2323 44.32C44.2323 44.8267 44.459 45.2667 44.9123 45.64C45.3657 46 45.9123 46.32 46.5523 46.6C47.2057 46.8667 47.8523 47.16 48.4923 47.48C49.1457 47.8 49.699 48.26 50.1523 48.86C50.6057 49.46 50.8323 50.18 50.8323 51.02C50.8323 52.66 50.3123 53.8867 49.2723 54.7C48.2457 55.5133 47.0723 55.92 45.7523 55.92C44.4457 55.92 43.359 55.6267 42.4923 55.04C41.639 54.44 41.2123 53.64 41.2123 52.64V52.62C41.2123 52.1267 41.2857 51.7 41.4323 51.34C41.5923 50.9667 41.779 50.6933 41.9923 50.52C42.4323 50.16 42.8323 49.9667 43.1923 49.94L43.4323 49.92C43.8057 49.92 44.1457 50.0133 44.4523 50.2C44.759 50.3733 44.9123 50.62 44.9123 50.94C44.9123 51.1 44.8257 51.2333 44.6523 51.34C44.479 51.4467 44.3257 51.6067 44.1923 51.82C44.0723 52.0333 44.0057 52.2133 43.9923 52.36L43.9523 52.58C43.9523 53.3933 44.3257 53.9333 45.0723 54.2C45.339 54.2933 45.5523 54.34 45.7123 54.34C46.4457 54.34 47.0323 54.12 47.4723 53.68C47.9257 53.24 48.1523 52.68 48.1523 52C48.1523 51.1867 47.8057 50.5267 47.1123 50.02C46.5923 49.6467 46.0257 49.3333 45.4123 49.08C44.8123 48.8267 44.4057 48.6467 44.1923 48.54C43.979 48.4333 43.7523 48.3067 43.5123 48.16C43.2723 48.0133 43.0057 47.8067 42.7123 47.54C42.0723 46.98 41.7523 46.2267 41.7523 45.28C41.7523 44.32 42.0123 43.5133 42.5323 42.86C43.4657 41.6733 44.8657 41.08 46.7323 41.08C47.719 41.08 48.5523 41.2733 49.2323 41.66C49.9123 42.0333 50.2523 42.5533 50.2523 43.22C50.2523 43.7 50.1123 44.1 49.8323 44.42C49.5657 44.74 49.219 44.9 48.7923 44.9C48.5923 44.9 48.3923 44.86 48.1923 44.78C48.0057 44.7 47.9123 44.58 47.9123 44.42ZM56.9477 44.04C55.8943 45.36 55.1343 46.68 54.6677 48H54.6877C56.541 48 57.601 48.0067 57.8677 48.02C58.1477 48.02 58.301 48.0067 58.3277 47.98C58.3543 47.9533 58.3743 47.92 58.3877 47.88C58.161 46.24 57.981 45.1267 57.8477 44.54C57.7143 43.94 57.581 43.64 57.4477 43.64C57.3143 43.64 57.1477 43.7733 56.9477 44.04ZM55.1677 53.46L55.6077 53.38C55.741 53.38 55.8077 53.4533 55.8077 53.6C55.8077 54.0667 55.7143 54.46 55.5277 54.78C55.341 55.1 55.1077 55.3267 54.8277 55.46C54.3743 55.6867 53.9877 55.8 53.6677 55.8C53.0543 55.8 52.5943 55.5733 52.2877 55.12C51.981 54.6533 51.8277 53.96 51.8277 53.04C51.8277 52.1067 52.081 50.9 52.5877 49.42H51.4277C51.281 49.42 51.2077 49.3467 51.2077 49.2C51.2077 49.0533 51.321 48.82 51.5477 48.5C51.7743 48.1667 52.0143 48 52.2677 48H53.1677C54.1143 45.8933 55.2277 44.0733 56.5077 42.54C56.841 42.14 57.2477 41.7667 57.7277 41.42C58.221 41.0733 58.601 40.9 58.8677 40.9C59.1343 40.9 59.3343 41.02 59.4677 41.26C59.8143 41.82 60.221 43.8667 60.6877 47.4C60.8477 48.92 61.121 50.4933 61.5077 52.12C61.9077 53.7333 62.2743 54.6733 62.6077 54.94C62.6877 54.9933 62.7277 55.06 62.7277 55.14C62.7277 55.34 62.441 55.5267 61.8677 55.7C61.3077 55.8733 60.8743 55.96 60.5677 55.96C60.2743 55.96 60.0477 55.92 59.8877 55.84C59.7277 55.7733 59.6277 55.7 59.5877 55.62C59.3477 55.1 59.1077 53.86 58.8677 51.9L58.7477 50.96C58.6943 50.3333 58.641 49.86 58.5877 49.54L58.4477 49.44L54.2677 49.42C54.1077 50.1 54.0277 50.6933 54.0277 51.2C54.0277 51.7067 54.041 52.08 54.0677 52.32C54.1077 52.5467 54.221 52.7933 54.4077 53.06C54.5943 53.3267 54.8477 53.46 55.1677 53.46ZM68.4125 44.04C67.3592 45.36 66.5992 46.68 66.1325 48H66.1525C68.0058 48 69.0658 48.0067 69.3325 48.02C69.6125 48.02 69.7658 48.0067 69.7925 47.98C69.8192 47.9533 69.8392 47.92 69.8525 47.88C69.6258 46.24 69.4458 45.1267 69.3125 44.54C69.1792 43.94 69.0458 43.64 68.9125 43.64C68.7792 43.64 68.6125 43.7733 68.4125 44.04ZM66.6325 53.46L67.0725 53.38C67.2058 53.38 67.2725 53.4533 67.2725 53.6C67.2725 54.0667 67.1792 54.46 66.9925 54.78C66.8058 55.1 66.5725 55.3267 66.2925 55.46C65.8392 55.6867 65.4525 55.8 65.1325 55.8C64.5192 55.8 64.0592 55.5733 63.7525 55.12C63.4458 54.6533 63.2925 53.96 63.2925 53.04C63.2925 52.1067 63.5458 50.9 64.0525 49.42H62.8925C62.7458 49.42 62.6725 49.3467 62.6725 49.2C62.6725 49.0533 62.7858 48.82 63.0125 48.5C63.2392 48.1667 63.4792 48 63.7325 48H64.6325C65.5792 45.8933 66.6925 44.0733 67.9725 42.54C68.3058 42.14 68.7125 41.7667 69.1925 41.42C69.6858 41.0733 70.0658 40.9 70.3325 40.9C70.5992 40.9 70.7992 41.02 70.9325 41.26C71.2792 41.82 71.6858 43.8667 72.1525 47.4C72.3125 48.92 72.5858 50.4933 72.9725 52.12C73.3725 53.7333 73.7392 54.6733 74.0725 54.94C74.1525 54.9933 74.1925 55.06 74.1925 55.14C74.1925 55.34 73.9058 55.5267 73.3325 55.7C72.7725 55.8733 72.3392 55.96 72.0325 55.96C71.7392 55.96 71.5125 55.92 71.3525 55.84C71.1925 55.7733 71.0925 55.7 71.0525 55.62C70.8125 55.1 70.5725 53.86 70.3325 51.9L70.2125 50.96C70.1592 50.3333 70.1058 49.86 70.0525 49.54L69.9125 49.44L65.7325 49.42C65.5725 50.1 65.4925 50.6933 65.4925 51.2C65.4925 51.7067 65.5058 52.08 65.5325 52.32C65.5725 52.5467 65.6858 52.7933 65.8725 53.06C66.0592 53.3267 66.3125 53.46 66.6325 53.46ZM77.6173 46.5L77.6373 49L77.5573 52.46C77.5707 52.5133 77.5907 52.54 77.6173 52.54C77.644 52.54 77.664 52.5267 77.6773 52.5C77.944 52.1267 78.2707 51.94 78.6573 51.94C79.0573 51.94 79.2573 52.02 79.2573 52.18C79.2573 52.6867 79.3507 53.08 79.5373 53.36C79.7373 53.6267 80.0107 53.76 80.3573 53.76C80.7173 53.76 81.0573 53.52 81.3773 53.04C81.7107 52.56 81.8773 51.92 81.8773 51.12C81.8773 50.8533 81.824 50.5333 81.7173 50.16C81.504 49.4133 81.104 48.9133 80.5173 48.66C80.0907 48.4867 79.3973 48.4 78.4373 48.4C78.3307 48.4 78.2773 48.3267 78.2773 48.18C78.2773 47.4333 78.4107 47.0467 78.6773 47.02C79.0373 47.02 79.4173 46.9267 79.8173 46.74C80.6173 46.3667 81.0173 45.6 81.0173 44.44C81.0173 43.1867 80.2973 42.56 78.8573 42.56L78.2373 42.6C77.9973 42.6533 77.864 42.7533 77.8373 42.9V42.96C77.6907 43.4933 77.6173 44.6733 77.6173 46.5ZM74.6773 55.78L74.7173 55.56C74.8507 55.32 74.964 54.3467 75.0573 52.64C75.1507 50.92 75.1973 49.32 75.1973 47.84C75.1973 46.3467 75.164 45.1533 75.0973 44.26C75.044 43.3533 74.884 42.7 74.6173 42.3C74.564 42.2333 74.5373 42.1533 74.5373 42.06C74.5373 41.9667 74.6173 41.8867 74.7773 41.82C75.8707 41.3933 77.3573 41.18 79.2373 41.18C79.704 41.18 80.2107 41.2467 80.7573 41.38C81.304 41.5 81.7507 41.6533 82.0973 41.84C82.4573 42.0267 82.7773 42.3133 83.0573 42.7C83.3507 43.0867 83.5173 43.5467 83.5573 44.08C83.5573 46.0133 82.7573 47.1267 81.1573 47.42C81.0773 47.4467 81.0373 47.48 81.0373 47.52C81.0373 47.5467 81.0707 47.58 81.1373 47.62C81.964 47.7533 82.6573 48.0867 83.2173 48.62C83.4973 48.8733 83.7507 49.2667 83.9773 49.8C84.204 50.3333 84.3173 50.9467 84.3173 51.64C84.3173 52.5333 84.0573 53.38 83.5373 54.18C83.1107 54.8333 82.4907 55.3 81.6773 55.58C81.224 55.74 80.7173 55.82 80.1573 55.82C78.7573 55.82 77.8707 55.3733 77.4973 54.48C77.484 54.44 77.464 54.42 77.4373 54.42L77.3573 54.5C77.0773 55.4333 76.2773 55.92 74.9573 55.96C74.7707 55.96 74.6773 55.9 74.6773 55.78Z" fill="#D7B549"/>
</svg>
