<svg width="43" height="43" viewBox="0 0 43 43" fill="none" xmlns="http://www.w3.org/2000/svg">
<g clip-path="url(#clip0_55_102)" filter="url(#filter0_d_55_102)">
<path d="M21.5 10.522C18.297 10.522 15.691 13.1278 15.691 16.3309C15.691 19.5341 18.297 22.1399 21.5 22.1399C24.703 22.1399 27.309 19.5341 27.309 16.3309C27.309 13.1278 24.703 10.522 21.5 10.522ZM21.5 21.0438C18.9013 21.0438 16.787 18.9296 16.787 16.3309C16.787 13.7321 18.9012 11.6179 21.5 11.6179C24.0987 11.6179 26.213 13.7321 26.213 16.3309C26.213 18.9296 24.0987 21.0438 21.5 21.0438Z" fill="#4F55D8"/>
<path d="M21.5 15.7828C21.1575 15.7828 20.8789 15.5042 20.8789 15.1617C20.8789 14.8192 21.1575 14.5406 21.5 14.5406H22.6691C22.9717 14.5406 23.2171 14.2953 23.2171 13.9926C23.2171 13.6899 22.9718 13.4445 22.6691 13.4445H22.048V12.8234C22.048 12.5207 21.8026 12.2754 21.4999 12.2754C21.1972 12.2754 20.9519 12.5207 20.9519 12.8234V13.5347C20.2731 13.764 19.7828 14.4064 19.7828 15.1617C19.7828 16.1085 20.5531 16.8788 21.4999 16.8788C21.8424 16.8788 22.121 17.1574 22.121 17.4999C22.121 17.8424 21.8424 18.121 21.4999 18.121H20.3309C20.0282 18.121 19.7828 18.3663 19.7828 18.669C19.7828 18.9718 20.0282 19.2171 20.3309 19.2171H20.952V19.8382C20.952 20.1409 21.1973 20.3862 21.5 20.3862C21.8027 20.3862 22.048 20.141 22.048 19.8382V19.1269C22.7268 18.8976 23.2171 18.2552 23.2171 17.5C23.2171 16.5531 22.4468 15.7828 21.5 15.7828Z" fill="#4F55D8"/>
<path d="M38.7832 12.9714L36.6618 11.3622V6.97804C36.6618 6.67534 36.4165 6.43 36.1138 6.43H30.1604L22.5378 0.647341C21.9268 0.183796 21.0733 0.183796 20.4623 0.647341L12.8397 6.43007H6.88627C6.58364 6.43007 6.33823 6.67534 6.33823 6.9781V11.3623L4.21677 12.9714C4.08176 13.0741 4 13.2385 4 13.4081V34.4519C4 34.7547 4.24534 35 4.54804 35H27.9301C28.2327 35 28.4781 34.7547 28.4781 34.4519C28.4781 34.1492 28.2328 33.9039 27.9301 33.9039H5.09601V14.3932L36.5299 33.904H30.8528C30.5502 33.904 30.3048 34.1492 30.3048 34.452C30.3048 34.7547 30.5501 35 30.8528 35H38.4504C38.6633 35 38.8602 34.8737 38.9495 34.6809C38.9823 34.6098 39.0001 34.5306 39.0001 34.452V13.4081C39 13.2385 38.9182 13.0741 38.7832 12.9714ZM6.33823 13.8743L5.51437 13.3629L6.33823 12.7379V13.8743ZM36.6618 12.7379L37.4856 13.3629L36.6618 13.8743V12.7379ZM8.6764 12.239V15.3256L7.43424 14.5546V7.52607H18.5772C18.8799 7.52607 19.1253 7.2808 19.1253 6.97804C19.1253 6.67527 18.8799 6.43 18.5772 6.43H14.6531L21.1246 1.52063C21.3456 1.35295 21.6543 1.35295 21.8754 1.52063L28.3469 6.43H21.5C21.1974 6.43 20.952 6.67527 20.952 6.97804C20.952 7.2808 21.1973 7.52607 21.5 7.52607H35.5658V14.5546L34.3236 15.3256V12.239C34.3236 11.9363 34.0783 11.691 33.7756 11.691C32.4661 11.691 31.4008 10.6258 31.4008 9.31627C31.4008 9.01357 31.1555 8.76823 30.8528 8.76823H12.1472C11.8446 8.76823 11.5992 9.0135 11.5992 9.31627C11.5992 10.6258 10.5339 11.691 9.22443 11.691C8.92181 11.691 8.6764 11.9363 8.6764 12.239ZM9.77247 16.0059V12.7437C11.2482 12.5087 12.4169 11.34 12.652 9.86424H30.3481C30.5832 11.34 31.7518 12.5087 33.2277 12.7437V16.0059L21.5001 23.2851L9.77247 16.0059ZM37.904 33.4669L22.5391 23.9301L37.904 14.3932V33.4669Z" fill="#4F55D8"/>
<path d="M29.6837 1.16908H29.0626V0.548037C29.0626 0.245342 28.8173 0 28.5146 0C28.2119 0 27.9665 0.245273 27.9665 0.548037V1.16915H27.3454C27.0428 1.16915 26.7974 1.41442 26.7974 1.71719C26.7974 2.01988 27.0427 2.26522 27.3454 2.26522H27.9665V2.88634C27.9665 3.18903 28.2119 3.43438 28.5146 3.43438C28.8173 3.43438 29.0626 3.1891 29.0626 2.88634V2.26522H29.6837C29.9863 2.26522 30.2318 2.01995 30.2318 1.71719C30.2318 1.41442 29.9863 1.16908 29.6837 1.16908Z" fill="#4F55D8"/>
<path d="M10.9781 2.92281H10.3569V2.3017C10.3569 1.999 10.1116 1.75366 9.80891 1.75366C9.50621 1.75366 9.26087 1.99894 9.26087 2.3017V2.92281H8.63976C8.33713 2.92281 8.09172 3.16809 8.09172 3.47085C8.09172 3.77354 8.33706 4.01889 8.63976 4.01889H9.26087V4.64C9.26087 4.9427 9.50621 5.18804 9.80891 5.18804C10.1116 5.18804 10.3569 4.94276 10.3569 4.64V4.01889H10.9781C11.2807 4.01889 11.5261 3.77361 11.5261 3.47085C11.5261 3.16809 11.2808 2.92281 10.9781 2.92281Z" fill="#4F55D8"/>
<path d="M34.3601 2.92281H33.739V2.3017C33.739 1.999 33.4937 1.75366 33.191 1.75366C32.8883 1.75366 32.6429 1.99894 32.6429 2.3017V2.92281H32.0218C31.7192 2.92281 31.4738 3.16809 31.4738 3.47085C31.4738 3.77354 31.7191 4.01889 32.0218 4.01889H32.6429V4.64C32.6429 4.9427 32.8883 5.18804 33.191 5.18804C33.4936 5.18804 33.739 4.94276 33.739 4.64V4.01889H34.3601C34.6627 4.01889 34.9081 3.77361 34.9081 3.47085C34.9081 3.16809 34.6628 2.92281 34.3601 2.92281Z" fill="#4F55D8"/>
<path d="M15.6545 1.16908H15.0334V0.548037C15.0334 0.245342 14.7881 0 14.4854 0C14.1827 0 13.9373 0.245273 13.9373 0.548037V1.16915H13.3162C13.0136 1.16915 12.7682 1.41442 12.7682 1.71719C12.7682 2.01988 13.0135 2.26522 13.3162 2.26522H13.9373V2.88634C13.9373 3.18903 14.1827 3.43438 14.4854 3.43438C14.7881 3.43438 15.0334 3.1891 15.0334 2.88634V2.26522H15.6545C15.9571 2.26522 16.2026 2.01995 16.2026 1.71719C16.2025 1.41442 15.9571 1.16908 15.6545 1.16908Z" fill="#4F55D8"/>
</g>
<defs>
<filter id="filter0_d_55_102" x="0" y="0" width="43" height="43" filterUnits="userSpaceOnUse" color-interpolation-filters="sRGB">
<feFlood flood-opacity="0" result="BackgroundImageFix"/>
<feColorMatrix in="SourceAlpha" type="matrix" values="0 0 0 0 0 0 0 0 0 0 0 0 0 0 0 0 0 0 127 0" result="hardAlpha"/>
<feOffset dy="4"/>
<feGaussianBlur stdDeviation="2"/>
<feComposite in2="hardAlpha" operator="out"/>
<feColorMatrix type="matrix" values="0 0 0 0 0 0 0 0 0 0 0 0 0 0 0 0 0 0 0.25 0"/>
<feBlend mode="normal" in2="BackgroundImageFix" result="effect1_dropShadow_55_102"/>
<feBlend mode="normal" in="SourceGraphic" in2="effect1_dropShadow_55_102" result="shape"/>
</filter>
<clipPath id="clip0_55_102">
<rect width="35" height="35" fill="white" transform="translate(4)"/>
</clipPath>
</defs>
</svg>
