<svg width="35" height="38" viewBox="0 0 35 38" fill="none" xmlns="http://www.w3.org/2000/svg">
<path d="M14.1443 14.2544L17.0021 4.95756C17.256 4.11734 16.6457 3.26573 15.5588 2.94188C14.408 2.59904 13.0799 2.95117 12.5191 3.76395C8.20543 10.0179 0.462867 17.5406 0.462867 20.4243C0.447323 20.5738 0.440414 20.7233 0.440414 20.8723C0.440414 22.1774 0.989631 23.4664 1.52215 24.717C2.10706 26.0897 2.71154 27.5083 2.56819 28.9143L2.21414 32.3964H13.9106C12.18 26.4807 12.1478 20.4412 14.1443 14.2544Z" fill="#EEC6B3"/>
<path d="M14.2813 3.79718C9.96763 10.2698 2.22507 18.056 2.22507 21.0402C2.20952 21.1948 2.20261 21.3497 2.20261 21.5038C2.20261 22.8545 2.75183 24.1887 3.28435 25.4833C3.86926 26.904 4.47374 28.3721 4.3304 29.8271L4.07824 32.3958H2.2147L2.56876 28.9138C2.71153 27.5078 2.10705 26.0891 1.52272 24.7165C0.990195 23.4655 0.440979 22.1768 0.440979 20.8718C0.440979 20.7227 0.447887 20.5733 0.463431 20.4238C0.463431 17.5404 8.20599 10.0173 12.5197 3.7634C13.077 2.95528 14.3942 2.60399 15.5404 2.93712C15.0113 3.09292 14.5542 3.38721 14.2813 3.79718Z" fill="#CD957B"/>
<path d="M34.9253 4.84862C30.8879 10.921 29.4424 16.7662 29.2512 24.2965L13.2802 23.8819C13.3591 16.835 14.7649 10.3295 19.112 4.17517C19.3222 3.87751 19.7522 3.69722 20.2087 3.70904L34.2874 4.07469C34.8182 4.08862 35.1585 4.4986 34.9253 4.84862Z" fill="#4F55D8"/>
<path d="M29.4665 1.93226C28.0457 9.22062 27.8989 16.6238 29.1453 24.1529L13.2508 25.3701C11.9987 18.4115 12.3792 10.9103 13.6049 3.12841C13.6705 2.71295 14.1225 2.38615 14.6895 2.34266L28.6105 1.27655C29.1194 1.23813 29.5391 1.56071 29.4665 1.93226Z" fill="#4F55D8"/>
<path d="M23.7291 0.655049L29.7504 24.2867C29.8615 24.7224 29.47 25.1413 28.8759 25.2228L13.3516 27.3503C12.7575 27.4318 12.1864 27.1447 12.0753 26.709L6.05405 3.07733C5.94294 2.64159 6.33442 2.22275 6.92854 2.14126L22.4528 0.0136961C23.0469 -0.0673701 23.618 0.21974 23.7291 0.655049Z" fill="#0F1378"/>
<path d="M8.16916 5.41311L12.8968 23.9676C14.6653 23.7252 16.3671 24.5802 16.6975 25.8773L25.0481 24.7331C24.7176 23.436 25.8834 22.1879 27.6519 21.9456L22.9243 3.39067C22.8926 3.39574 22.8621 3.40292 22.8293 3.40714C21.0608 3.64949 19.359 2.7945 19.0286 1.49744L10.6781 2.64165C11.0027 3.91549 9.88359 5.13909 8.16916 5.41311Z" fill="#4F55D8"/>
<path d="M14.1132 26.2217C14.5638 26.2217 14.929 25.9539 14.929 25.6234C14.929 25.293 14.5638 25.0251 14.1132 25.0251C13.6627 25.0251 13.2975 25.293 13.2975 25.6234C13.2975 25.9539 13.6627 26.2217 14.1132 26.2217Z" fill="#4F55D8"/>
<path d="M27.2967 24.4146C27.7473 24.4146 28.1125 24.1467 28.1125 23.8163C28.1125 23.4859 27.7473 23.218 27.2967 23.218C26.8462 23.218 26.481 23.4859 26.481 23.8163C26.481 24.1467 26.8462 24.4146 27.2967 24.4146Z" fill="#4F55D8"/>
<path d="M8.50594 4.14811C8.95647 4.14811 9.3217 3.88025 9.3217 3.54982C9.3217 3.2194 8.95647 2.95154 8.50594 2.95154C8.0554 2.95154 7.69017 3.2194 7.69017 3.54982C7.69017 3.88025 8.0554 4.14811 8.50594 4.14811Z" fill="#4F55D8"/>
<path d="M21.6894 2.34098C22.14 2.34098 22.5052 2.07312 22.5052 1.7427C22.5052 1.41227 22.14 1.14441 21.6894 1.14441C21.2389 1.14441 20.8737 1.41227 20.8737 1.7427C20.8737 2.07312 21.2389 2.34098 21.6894 2.34098Z" fill="#4F55D8"/>
<path d="M17.9002 18.3837C21.4406 18.3837 24.3106 16.2788 24.3106 13.6823C24.3106 11.0857 21.4406 8.98083 17.9002 8.98083C14.3598 8.98083 11.4898 11.0857 11.4898 13.6823C11.4898 16.2788 14.3598 18.3837 17.9002 18.3837Z" fill="#0F1378"/>
<path d="M18.1293 12.039C17.4638 12.3954 17.2871 13.0756 17.2076 13.6282C17.1121 14.292 16.9261 14.4575 16.8507 14.498C16.8018 14.5242 16.7114 14.5276 16.6043 14.5115C16.2951 14.4571 16.0257 14.2101 15.9497 13.9115C15.895 13.6971 15.9468 13.4805 16.0775 13.3268C16.1737 13.2132 16.1604 13.0675 16.0568 12.9573L15.7845 12.6694C15.6043 12.479 15.2186 12.4642 15.0246 12.647C14.7287 12.9257 14.5588 13.2812 14.5387 13.6603L14.0321 13.7296C13.7747 13.765 13.6049 13.9466 13.6533 14.1353L13.7356 14.4579C13.7839 14.6466 14.0315 14.7712 14.2888 14.7357L14.8496 14.6589C15.1604 15.0853 15.6757 15.4003 16.3003 15.5105C16.9624 15.611 17.4137 15.4649 17.6751 15.3247C18.3406 14.9684 18.5173 14.2882 18.5968 13.7355C18.6918 13.0713 18.8777 12.9058 18.9537 12.8653C19.0026 12.8391 19.093 12.8357 19.2007 12.8518C19.5098 12.9062 19.7793 13.1532 19.8553 13.4522C19.9099 13.6671 19.8587 13.8828 19.728 14.0369C19.6319 14.1505 19.6451 14.2962 19.7488 14.406L20.0211 14.6939C20.203 14.8865 20.5904 14.897 20.7867 14.7125C21.0613 14.4537 21.2277 14.1286 21.2651 13.7798L21.7919 13.7076C22.0492 13.6721 22.2191 13.4906 22.1707 13.3019L22.0884 12.9793C22.04 12.7906 21.7925 12.666 21.5351 12.7015L21.0078 12.7737C20.7038 12.3113 20.1633 11.9693 19.5047 11.8532C18.8426 11.7527 18.3913 11.8988 18.1293 12.039Z" fill="#4F55D8"/>
<path d="M20.1327 19.7216L20.7194 22.024C20.7884 22.2946 20.5449 22.5552 20.1759 22.6058C19.8069 22.6565 19.4517 22.4779 19.3826 22.2072L18.796 19.9049C18.7269 19.6342 18.9704 19.3737 19.3394 19.3231C19.7084 19.2728 20.0636 19.451 20.1327 19.7216Z" fill="#0F1378"/>
<path d="M16.4218 5.15668L17.0084 7.45905C17.0775 7.72969 16.834 7.9902 16.465 8.04087C16.0959 8.09153 15.7407 7.91293 15.6716 7.64229L15.085 5.33992C15.0159 5.06928 15.2594 4.80877 15.6285 4.7581C15.9975 4.70744 16.3527 4.88604 16.4218 5.15668Z" fill="#0F1378"/>
<path d="M20.1846 14.8412C21.1966 15.8351 22.1448 17.3141 20.8777 19.3682L17.2779 25.0771C16.8259 25.9878 16.937 26.8876 17.0562 27.8409C17.184 28.8597 17.3147 29.9174 16.7522 31.0224L15.8467 32.8067L9.74196 31.5104C8.54278 25.1425 16.7632 15.6721 20.1846 14.8412Z" fill="#EEC6B3"/>
<path d="M11.3718 24.0245C12.0471 20.5264 15.4287 16.8679 18.4304 14.8298C18.9267 14.4929 19.6964 14.4984 20.1851 14.8412C18.3141 14.9096 13.6026 20.6315 11.3718 24.0245Z" fill="#CD957B"/>
<path d="M0 31.7051V36.9085C0 37.511 0.666083 38 1.48818 38H19.0798C19.9013 38 20.568 37.5115 20.568 36.9085V31.7051C20.568 31.1026 19.9019 30.6136 19.0798 30.6136H1.48818C0.666658 30.6141 0 31.1026 0 31.7051Z" fill="#343936"/>
<path d="M20.568 31.7051V32.2413C20.5127 32.2367 20.4586 32.2291 20.4016 32.2291H2.80941C1.98789 32.2291 1.32123 32.7176 1.32123 33.3205V37.9877C0.579152 37.9265 0 37.4697 0 36.909V31.7051C0 31.1026 0.666083 30.6136 1.48818 30.6136H19.0798C19.9019 30.6141 20.568 31.1026 20.568 31.7051Z" fill="#2E322F"/>
</svg>
