<svg width="20" height="28" viewBox="0 0 20 28" fill="none" xmlns="http://www.w3.org/2000/svg">
<g clip-path="url(#clip0_148_30)">
<path d="M11.0778 1.07676L3.38517 2.27339C1.7697 2.52468 0.961965 2.65033 0.480983 3.21192C0 3.7735 0 4.59095 0 6.22585V21.7741C0 23.409 0 24.2265 0.480983 24.7881C0.961965 25.3496 1.7697 25.4753 3.38517 25.7266L11.0778 26.9232C14.2946 27.4236 15.903 27.6738 16.9515 26.7758C18 25.8778 18 24.25 18 20.9945V7.00546C18 3.74996 18 2.12221 16.9515 1.22419C15.903 0.326169 14.2946 0.576366 11.0778 1.07676Z" fill="#4F55D8"/>
<path d="M8.00001 14L7.22478 13.3683L6.71008 14L7.22478 14.6317L8.00001 14ZM19 15C19.5523 15 20 14.5523 20 14C20 13.4477 19.5523 13 19 13V15ZM12.1137 7.36829L7.22478 13.3683L8.77524 14.6317L13.6641 8.63163L12.1137 7.36829ZM7.22478 14.6317L12.1137 20.6317L13.6641 19.3683L8.77524 13.3683L7.22478 14.6317ZM8.00001 15H19V13H8.00001V15Z" fill="white"/>
</g>
<defs>
<clipPath id="clip0_148_30">
<rect width="20" height="28" fill="white"/>
</clipPath>
</defs>
</svg>
