<svg width="14" height="18" viewBox="0 0 14 18" fill="none" xmlns="http://www.w3.org/2000/svg">
<path d="M12 0H2C0.89543 0 0 0.89543 0 2V16C0 17.1046 0.89543 18 2 18H12C13.1046 18 14 17.1046 14 16V2C14 0.89543 13.1046 0 12 0Z" fill="white"/>
<path d="M9.5 15.5C10.6046 15.5 11.5 14.6046 11.5 13.5C11.5 12.3954 10.6046 11.5 9.5 11.5C8.39543 11.5 7.5 12.3954 7.5 13.5C7.5 14.6046 8.39543 15.5 9.5 15.5Z" stroke="#4F55D8"/>
<path d="M12 16L13.5 17.5" stroke="#4F55D8" stroke-linecap="round"/>
<path d="M2.5 3.5H9.5" stroke="#4F55D8" stroke-linecap="round"/>
<path d="M2.5 6.5H6.5" stroke="#4F55D8" stroke-linecap="round"/>
</svg>
