<svg width="15" height="17" viewBox="0 0 15 17" fill="none" xmlns="http://www.w3.org/2000/svg">
<path d="M14.1142 15.5102H3.57673C3.48217 15.5102 3.40543 15.4332 3.40543 15.3379C3.40543 15.2426 3.48217 15.1655 3.57673 15.1655H13.9431V0.344671H3.74804V8.48632C3.74804 8.58162 3.6713 8.65866 3.57673 8.65866C3.48217 8.65866 3.40543 8.58162 3.40543 8.48632V0.172336C3.40543 0.0772064 3.48217 0 3.57673 0H14.1144C14.2091 0 14.2857 0.0772064 14.2857 0.172336V15.3379C14.2855 15.4332 14.209 15.5102 14.1142 15.5102Z" fill="white"/>
<path d="M12.997 4.24549H4.6942C4.59963 4.24549 4.52289 4.16828 4.52289 4.07315V1.29648C4.52289 1.20135 4.59963 1.12415 4.6942 1.12415H12.997C13.0917 1.12415 13.1683 1.20135 13.1683 1.29648V4.07315C13.1683 4.16845 13.0917 4.24549 12.997 4.24549ZM4.8655 3.90082H12.8257V1.46882H4.8655V3.90082Z" fill="white"/>
<path d="M6.47152 7.69737H4.6942C4.59963 7.69737 4.52289 7.62017 4.52289 7.52504V5.43564C4.52289 5.34051 4.59963 5.26331 4.6942 5.26331H6.47152C6.56608 5.26331 6.64282 5.34051 6.64282 5.43564V7.52521C6.64282 7.62017 6.56608 7.69737 6.47152 7.69737ZM4.8655 7.3527H6.30021V5.60798H4.8655V7.3527V7.3527Z" fill="white"/>
<path d="M9.73424 7.69737H7.95692C7.86219 7.69737 7.78561 7.62017 7.78561 7.52504V5.43564C7.78561 5.34051 7.86219 5.26331 7.95692 5.26331H9.73424C9.82898 5.26331 9.90555 5.34051 9.90555 5.43564V7.52521C9.90555 7.62017 9.82898 7.69737 9.73424 7.69737ZM8.12823 7.3527H9.56293V5.60798H8.12823V7.3527Z" fill="white"/>
<path d="M13.0321 7.69737H11.2547C11.16 7.69737 11.0834 7.62017 11.0834 7.52504V5.43564C11.0834 5.34051 11.16 5.26331 11.2547 5.26331H13.0321C13.1268 5.26331 13.2034 5.34051 13.2034 5.43564V7.52521C13.2034 7.62017 13.1268 7.69737 13.0321 7.69737ZM11.4261 7.3527H12.8608V5.60798H11.4261V7.3527Z" fill="white"/>
<path d="M9.73424 11.0184H7.95692C7.86219 11.0184 7.78561 10.9414 7.78561 10.8461V8.75669C7.78561 8.66138 7.86219 8.58435 7.95692 8.58435H9.73424C9.82898 8.58435 9.90555 8.66138 9.90555 8.75669V10.8461C9.90555 10.9412 9.82898 11.0184 9.73424 11.0184ZM8.12823 10.6737H9.56293V8.92902H8.12823V10.6737Z" fill="white"/>
<path d="M9.73424 14.3393H7.95692C7.86219 14.3393 7.78561 14.2623 7.78561 14.167V12.0776C7.78561 11.9823 7.86219 11.9053 7.95692 11.9053H9.73424C9.82898 11.9053 9.90555 11.9823 9.90555 12.0776V14.167C9.90555 14.2623 9.82898 14.3393 9.73424 14.3393ZM8.12823 13.9947H9.56293V12.2499H8.12823V13.9947Z" fill="white"/>
<path d="M13.0321 14.3393H11.2547C11.16 14.3393 11.0834 14.2623 11.0834 14.167V8.75669C11.0834 8.66138 11.16 8.58435 11.2547 8.58435H13.0321C13.1268 8.58435 13.2034 8.66138 13.2034 8.75669V14.1672C13.2034 14.2623 13.1268 14.3393 13.0321 14.3393ZM11.4261 13.9947H12.8608V8.92902H11.4261V13.9947Z" fill="white"/>
<path d="M3.57675 14.5832C2.11258 14.5832 0.921478 13.385 0.921478 11.912C0.921478 10.4391 2.11258 9.24084 3.57675 9.24084C4.08365 9.24084 4.57651 9.38509 5.00238 9.65824C5.08221 9.70925 5.10568 9.81593 5.0548 9.89606C5.00392 9.97672 4.89788 10.0002 4.81822 9.9488C4.44768 9.71115 4.01838 9.58569 3.57675 9.58569C2.30154 9.58569 1.26409 10.6294 1.26409 11.9122C1.26409 13.1951 2.30154 14.2387 3.57675 14.2387C4.85197 14.2387 5.88941 13.1951 5.88941 11.9122C5.88941 11.3701 5.70011 10.8424 5.35613 10.4262C5.29566 10.3529 5.30559 10.2442 5.3784 10.1833C5.45103 10.1229 5.55913 10.1329 5.6196 10.2058C6.01447 10.6838 6.23203 11.2899 6.23203 11.9122C6.23203 13.385 5.04075 14.5832 3.57675 14.5832Z" fill="white"/>
<path d="M3.57674 15.6142C1.60447 15.6142 0 14.0001 0 12.016C0 10.0321 1.60447 8.41797 3.57657 8.41797C5.54866 8.41797 7.15314 10.0321 7.15314 12.016C7.15331 14.0001 5.54884 15.6142 3.57674 15.6142ZM3.57674 8.76264C1.79342 8.76264 0.342787 10.2222 0.342787 12.016C0.342616 13.81 1.79342 15.2695 3.57674 15.2695C5.36006 15.2695 6.81069 13.81 6.81069 12.016C6.81069 10.2222 5.35988 8.76264 3.57674 8.76264Z" fill="white"/>
<path d="M3.62524 13.2056C2.91619 13.2056 2.33957 12.6253 2.33957 11.912C2.33957 11.1987 2.91636 10.6187 3.62524 10.6187C3.9449 10.6187 4.25137 10.7374 4.48828 10.9533C4.55835 11.0173 4.56366 11.1262 4.50028 11.1968C4.43672 11.2672 4.32845 11.2725 4.25822 11.2087C4.08451 11.0504 3.85976 10.9632 3.62524 10.9632C3.10514 10.9632 2.68218 11.3888 2.68218 11.9119C2.68218 12.4351 3.10532 12.8607 3.62524 12.8607C3.85976 12.8607 4.08451 12.7735 4.25822 12.6152C4.32845 12.5516 4.43672 12.5566 4.50028 12.6271C4.56383 12.6977 4.55835 12.8066 4.48828 12.8706C4.25137 13.0868 3.9449 13.2056 3.62524 13.2056Z" fill="white"/>
<path d="M7.86635 12.458C7.77178 12.458 7.69504 12.381 7.69504 12.2857V11.8557C7.69504 11.7604 7.77178 11.6833 7.86635 11.6833C7.96091 11.6833 8.03765 11.7604 8.03765 11.8557V12.2857C8.03765 12.381 7.96091 12.458 7.86635 12.458Z" fill="white"/>
<path d="M0.519391 16.5394C0.424829 16.5394 0.348083 16.4623 0.348083 16.367V15.9372C0.348083 15.8419 0.424829 15.7649 0.519391 15.7649C0.613953 15.7649 0.690699 15.8419 0.690699 15.9372V16.367C0.690699 16.4623 0.613953 16.5394 0.519391 16.5394Z" fill="white"/>
</svg>
